<svg xmlns="http://www.w3.org/2000/svg" width="250.071" height="62.658" viewBox="0 0 250.071 62.658">
  <g id="scann-btn" transform="translate(1 1.099)">
    <path id="barcode-solid" d="M0,109.533V46.875H8.792v62.658Zm13.117-.045V46.875h4.466v62.614Zm13.257,0V46.875H30.7v62.614Zm21.909,0V46.875H52.61v62.614Zm17.583,0V46.875h8.652v62.614Zm21.909,0V46.875H92.1v62.614Zm8.792,0V46.875h4.326v62.614Zm8.792,0V46.875h4.326v62.614Zm17.444,0V46.875h8.792v62.614Zm21.909,0V46.875H153.5v62.614Zm17.583,0V46.875h8.792v62.614Zm17.584,0V46.875h8.792v62.614Zm13.117,0V46.875h8.792v62.614Zm22.049,0V46.875h13.117v62.614Zm17.443,0V46.875h4.466v62.614h-4.466Zm8.792.045V46.875h8.792v62.658Z" transform="translate(-1 -47.974)"/>
  </g>
</svg>
